<svg xmlns="http://www.w3.org/2000/svg" viewBox="0 0 300 91.8"><g fill="#11133D"><path d="M72.7 5.4c4.1-5.8 12.2-7.2 17.9-3 5.8 4.1 7.1 12.2 3 17.9-4.1 5.8-12.2 7.2-17.9 3-5.7-4.1-7.1-12.1-3-17.9M0 54.6C.1 34.3 16.6 17.9 36.9 18c20.3 0 36.7 16.5 36.7 36.9-.1 20.3-16.6 36.7-36.9 36.6C16.4 91.5-.1 74.9 0 54.6M152.9 61.5h-4.2c-.7 0-.9.5-.9.9v28.1c0 .4.2.9.9.9h4.2c.6 0 .9-.3.9-.9V62.4c0-.6-.4-.9-.9-.9M272.4 18.1H257c-.4 0-.9.2-.9.9v4.2c0 .6.3.9.9.9h4.6v23c0 .6.4.9.9.9h4.3c.7 0 .9-.5.9-.9v-23h4.7c.6 0 .9-.4.9-.9V19c.1-.6-.4-.9-.9-.9M210.4 47.2v-11h6.2v11c0 .6.4.9.9.9h4.2c.7 0 .9-.5.9-.9V19.1c0-.4-.2-.9-.9-.9h-4.2c-.6 0-.9.3-.9.9v11h-6.2v-11c0-.6-.4-.9-.9-.9h-4.2c-.7 0-.9.5-.9.9v28.1c0 .4.2.9.9.9h4.2c.5.1.9-.3.9-.9M137.2 18.1h-15.6c-.7 0-1.1.2-1.1 1.2v27.9c0 .4.2.9.9.9h4.2c.6 0 .9-.3.9-.9v-23h5.8v23c0 .6.4.9.9.9h4.2c.7 0 .9-.5.9-.9V19.3c0-.9-.4-1.2-1.1-1.2M166.5 47.2V19.3c0-.9-.4-1.2-1.1-1.2h-8.5c-4.2 0-6.5 2.1-6.5 6.6v8.9c0 1.6.2 6.4-.8 8.5-.7 1.4-1.7 1.8-2.4 2.2-.5.3-.7.7-.4 1.4.2.5.8 1.9 1 2.4.2.4.5.8 1.2.7 1.1-.2 2.7-.6 4.1-2 1.6-1.5 3.1-3.1 3.1-12.3v-8.9c0-2 1.4-1.9 2.6-1.9h1.7v-.4 23.9c0 .6.4.9.9.9h4.2c.7 0 .9-.5.9-.9M180.8 61.5h-4.2c-.5 0-.9.3-.9.9v11h-6.2v-11c0-.6-.4-.9-.9-.9h-4.2c-.7 0-.9.5-.9.9v28.1c0 .4.2.9.9.9h4.2c.6 0 .9-.3.9-.9v-11h6.2v11c0 .6.4.9.9.9h4.2c.7 0 .9-.5.9-.9V62.4c0-.4-.2-.9-.9-.9M236.8 48.2H248c.7 0 1-.4 1-1.1V43c0-.6-.2-.8-.8-.8h-9.7v-5.6h6.5c.7 0 1-.3 1-1v-4c0-.7-.3-1-1-1h-6.4v-6.3h8.6c.7 0 .9-.2.9-.9v-4c0-.7-.3-1.1-1-1.1H233.5c-.7 0-1 .4-1 1v28c0 .5.3 1 .9 1l3.4-.1zM182.5 37.5l2.3-9.1.3-2.2.3 2.2 2.3 9.1h-5.2zm13.7 9.4l-7.8-27.7c-.2-.7-.6-1-1.3-1H183.1c-.7 0-1.1.3-1.3 1L174 46.9c-.2.7.2 1.3.7 1.3h4c.8 0 1.1-.2 1.2-.8l1-3.8H189.2l1 3.8c.1.6.4.8 1.2.8h4c.7 0 1-.6.8-1.3M286.2 37.5l2.3-9.1.3-2.2.3 2.2 2.3 9.1h-5.2zm13.7 9.4l-7.8-27.7c-.2-.7-.6-1-1.3-1H286.8c-.7 0-1.1.3-1.3 1l-7.8 27.7c-.2.7.2 1.3.7 1.3h4c.8 0 1.1-.2 1.2-.8l1-3.8H292.9l1 3.8c.1.6.4.8 1.2.8h4c.7 0 1-.6.8-1.3M204.2 82.1c0 2.5-1.5 4.1-3.8 4.1s-3.9-1.5-3.9-4.1V70.7c0-2.5 1.6-3.9 3.8-3.9 2.2 0 3.9 1.5 3.9 4.1v11.2m-3.9-20.9c-5.7 0-9.9 3.1-9.9 9.7 0 4.3-.1 4.9-.1 10.6 0 6.8 4 10.3 10 10.3s10-3.7 10-10.3V71.3c0-6.6-4.3-10.1-10-10.1M138.1 82.6c-1.1-4.3-3.7-6.1-6.2-6.6h.1c3.1-.9 4.3-3.2 5.1-6.1l2.1-7.2c.2-.7 0-1.2-.8-1.2h-4c-.6 0-.9.1-1.1.8 0 0-1.7 5.9-2.1 7.6-.6 2.1-1.6 3-3.1 3h-1.8V62.4c0-.6-.4-.9-.9-.9h-4.2c-.7 0-.9.5-.9.9v28.1c0 .4.2.9.9.9h4.2c.6 0 .9-.3.9-.9V79.4h1.5c1.5 0 3.9 1 4.6 3.8.5 2.1 1.6 7.5 1.6 7.5.1.6.5.8 1.2.8h4c.5 0 .9-.4.7-1.1.2-.1-1.2-5.4-1.8-7.8"/></g></svg>